<?xml version="1.0" encoding="utf-8"?>
<!-- Generator: Adobe Illustrator 16.0.0, SVG Export Plug-In . SVG Version: 6.00 Build 0)  -->
<!DOCTYPE svg PUBLIC "-//W3C//DTD SVG 1.1//EN" "http://www.w3.org/Graphics/SVG/1.1/DTD/svg11.dtd">
<svg version="1.1" id="icons" xmlns="http://www.w3.org/2000/svg" xmlns:xlink="http://www.w3.org/1999/xlink" x="0px" y="0px"
	 width="64px" height="64px" viewBox="0 0 64 64" enable-background="new 0 0 64 64" xml:space="preserve">
<g>
	<g>
		<polygon fill="#A0D468" points="4,4 4,54 10,60 60,60 60,4 		"/>
	</g>
	<g>
		<path fill="#FFFFFF" d="M51,12H13c-0.55,0-1,0.45-1,1v38c0,0.55,0.45,1,1,1h10h18h10c0.55,0,1-0.45,1-1V13
			C52,12.45,51.55,12,51,12z"/>
	</g>
	<g>
		<polygon fill="#656D78" points="10,60 4,60 4,54 		"/>
	</g>
	<g>
		<path fill="#A0D468" d="M32,19c4.42,0,8,3.58,8,8s-3.58,8-8,8s-8-3.58-8-8S27.58,19,32,19z M36,27c0-2.21-1.79-4-4-4s-4,1.79-4,4
			s1.79,4,4,4S36,29.21,36,27z"/>
	</g>
	<g>
		<path fill="#E6E9ED" d="M51,9c2.2,0,4,1.8,4,4v38c0,2.2-1.8,4-4,4h-8l-2-3h10c0.55,0,1-0.45,1-1V13c0-0.55-0.45-1-1-1H13
			c-0.55,0-1,0.45-1,1v38c0,0.55,0.45,1,1,1h10l-2,3h-8c-2.2,0-4-1.8-4-4V13c0-2.2,1.8-4,4-4H51z"/>
	</g>
</g>
<g>
	<g>
		<path d="M60,61H4c-0.553,0-1-0.447-1-1V4c0-0.552,0.447-1,1-1h56c0.553,0,1,0.448,1,1v56C61,60.553,60.553,61,60,61z M5,59h54V5H5
			V59z"/>
	</g>
	<g>
		<path d="M10,60.998c-0.256,0-0.512-0.098-0.707-0.293l-5.998-5.998c-0.391-0.391-0.391-1.023,0-1.414s1.023-0.391,1.414,0
			l5.998,5.998c0.391,0.391,0.391,1.023,0,1.414C10.512,60.9,10.256,60.998,10,60.998z"/>
	</g>
	<g>
		<path d="M7.026,8.019c-0.553,0-1.005-0.448-1.005-1s0.442-1,0.994-1h0.011c0.552,0,1,0.448,1,1S7.578,8.019,7.026,8.019z"/>
	</g>
	<g>
		<path d="M57.03,8.019c-0.553,0-1.005-0.448-1.005-1s0.442-1,0.994-1h0.011c0.552,0,1,0.448,1,1S57.582,8.019,57.03,8.019z"/>
	</g>
	<g>
		<path d="M57.03,58c-0.553,0-1.005-0.447-1.005-1s0.442-1,0.994-1h0.011c0.552,0,1,0.447,1,1S57.582,58,57.03,58z"/>
	</g>
	<g>
		<g>
			<path d="M51,56h-7.999c-0.553,0-1-0.447-1-1s0.447-1,1-1H51c1.654,0,3-1.346,3-3V13c0-1.654-1.346-3-3-3H13c-1.654,0-3,1.346-3,3
				v38c0,1.654,1.346,3,3,3h7.998c0.553,0,1,0.447,1,1s-0.447,1-1,1H13c-2.757,0-5-2.243-5-5V13c0-2.757,2.243-5,5-5h38
				c2.757,0,5,2.243,5,5v38C56,53.757,53.757,56,51,56z"/>
		</g>
		<g>
			<path d="M51,53H13c-1.103,0-2-0.897-2-2V13c0-1.103,0.897-2,2-2h38c1.103,0,2,0.897,2,2v38C53,52.103,52.103,53,51,53z M51,51v1
				V51L51,51L51,51z M13,13v38h37.997L51,13H13z"/>
		</g>
		<g>
			<path d="M20.998,56c-0.19,0-0.384-0.055-0.554-0.168c-0.46-0.307-0.584-0.928-0.277-1.387l2-2.999
				c0.306-0.46,0.928-0.583,1.387-0.277c0.46,0.307,0.584,0.928,0.277,1.387l-2,2.999C21.639,55.844,21.321,56,20.998,56z"/>
		</g>
		<g>
			<path d="M43.002,56c-0.323,0-0.641-0.156-0.833-0.445l-2-2.999c-0.307-0.459-0.183-1.08,0.277-1.387
				c0.458-0.306,1.081-0.183,1.387,0.277l2,2.999c0.307,0.459,0.183,1.08-0.277,1.387C43.386,55.945,43.192,56,43.002,56z"/>
		</g>
		<g>
			<g>
				<path d="M32,36.001c-4.963,0-9-4.038-9-9s4.037-9,9-9s9,4.038,9,9S36.963,36.001,32,36.001z M32,20.001c-3.859,0-7,3.14-7,7
					s3.141,7,7,7s7-3.14,7-7S35.859,20.001,32,20.001z"/>
			</g>
			<g>
				<path d="M32,32c-2.757,0-5-2.243-5-4.999c0-2.757,2.243-5,5-5s5,2.243,5,5C37,29.757,34.757,32,32,32z M32,24.001
					c-1.654,0-3,1.346-3,3C29,28.655,30.346,30,32,30s3-1.345,3-2.999C35,25.347,33.654,24.001,32,24.001z"/>
			</g>
		</g>
		<g>
			<path d="M44,40.002H20c-0.553,0-1-0.447-1-1s0.447-1,1-1h24c0.553,0,1,0.447,1,1S44.553,40.002,44,40.002z"/>
		</g>
		<g>
			<path d="M44,43H20c-0.553,0-1-0.447-1-1s0.447-1,1-1h24c0.553,0,1,0.447,1,1S44.553,43,44,43z"/>
		</g>
		<g>
			<path d="M37,46H27c-0.553,0-1-0.447-1-1s0.447-1,1-1h10c0.553,0,1,0.447,1,1S37.553,46,37,46z"/>
		</g>
	</g>
</g>
</svg>
