<svg xmlns="http://www.w3.org/2000/svg" viewBox="0 0 24 24"><title>keyboard</title><g id="keyboard"><path d="M23,4H1A1,1,0,0,0,0,5V19a1,1,0,0,0,1,1H23a1,1,0,0,0,1-1V5A1,1,0,0,0,23,4ZM22,18H2V6H22Z"/><path d="M8,16h8a1,1,0,0,0,0-2H8A1,1,0,0,0,8,16Z"/><path d="M4,13H5a1,1,0,0,0,0-2H4A1,1,0,0,0,4,13Z"/><path d="M9,13h1a1,1,0,0,0,0-2H9A1,1,0,0,0,9,13Z"/><path d="M14,13h1a1,1,0,0,0,0-2H14A1,1,0,0,0,14,13Z"/><path d="M19,13h1a1,1,0,0,0,0-2H19A1,1,0,0,0,19,13Z"/><path d="M4,10H5A1,1,0,0,0,5,8H4A1,1,0,0,0,4,10Z"/><path d="M9,10h1a1,1,0,0,0,0-2H9A1,1,0,0,0,9,10Z"/><path d="M14,10h1a1,1,0,0,0,0-2H14A1,1,0,0,0,14,10Z"/><path d="M19,10h1a1,1,0,0,0,0-2H19A1,1,0,0,0,19,10Z"/></g></svg>