<svg xmlns="http://www.w3.org/2000/svg" viewBox="0 0 24 24"><title>keyboard wired</title><g id="keyboard_wired" data-name="keyboard wired"><path d="M23,9H9V4a1,1,0,0,1,2,0,3,3,0,0,0,6,0V2a1,1,0,0,0-2,0V4a1,1,0,0,1-2,0A3,3,0,0,0,7,4V9H1a1,1,0,0,0-1,1V23a1,1,0,0,0,1,1H23a1,1,0,0,0,1-1V10A1,1,0,0,0,23,9ZM22,22H2V11H22Z"/><path d="M8,18a1,1,0,0,0,0,2h8a1,1,0,0,0,0-2Z"/><path d="M6,15H5a1,1,0,0,0,0,2H6A1,1,0,0,0,6,15Z"/><path d="M10,17a1,1,0,0,0,0-2H9a1,1,0,0,0,0,2Z"/><path d="M14,17h1a1,1,0,0,0,0-2H14A1,1,0,0,0,14,17Z"/><path d="M18,17h1a1,1,0,0,0,0-2H18A1,1,0,0,0,18,17Z"/><path d="M5,14H6a1,1,0,0,0,0-2H5A1,1,0,0,0,5,14Z"/><path d="M9,14h1a1,1,0,0,0,0-2H9A1,1,0,0,0,9,14Z"/><path d="M14,14h1a1,1,0,0,0,0-2H14A1,1,0,0,0,14,14Z"/><path d="M18,14h1a1,1,0,0,0,0-2H18A1,1,0,0,0,18,14Z"/></g></svg>