<?xml version="1.0" encoding="UTF-8"?>
<!DOCTYPE svg PUBLIC "-//W3C//DTD SVG 1.1//EN" "http://www.w3.org/Graphics/SVG/1.1/DTD/svg11.dtd">
<!-- Creator: CorelDRAW -->
<svg xmlns="http://www.w3.org/2000/svg" xml:space="preserve" width="2048px" height="2048px" style="shape-rendering:geometricPrecision; text-rendering:geometricPrecision; image-rendering:optimizeQuality; fill-rule:evenodd; clip-rule:evenodd"
viewBox="0 0 2048 2048"
 xmlns:xlink="http://www.w3.org/1999/xlink">
 <defs>
  <style type="text/css">
   <![CDATA[
    .fil1 {fill:none}
    .fil0 {fill:#424242;fill-rule:nonzero}
   ]]>
  </style>
 </defs>
 <g id="Layer_x0020_1">
  <metadata id="CorelCorpID_0Corel-Layer"/>
  <g id="_226718856">
   <path id="_226718976" class="fil0" d="M832.1 1104.64c38.5866,-52.7268 80.2867,-86.4308 129.301,-100.507 49.0642,-14.0894 103.135,-7.84725 166.219,19.3831 61.0489,26.354 115.475,53.3374 162.973,76.8851 79.1068,39.2174 137.711,68.2725 174.678,68.2725 49.2993,0 67.2934,-74.8819 67.2934,-304.876l0 -607.795 65.3646 0 0 607.795c0,279.303 -35.4721,370.24 -132.658,370.24 -51.9119,0 -116.433,-31.989 -203.529,-75.1678 -45.978,-22.7941 -98.6587,-48.9118 -159.91,-75.352 -48.6603,-21.0047 -88.5225,-26.3504 -122.561,-16.5756 -34.089,9.79017 -64.6843,35.4083 -94.5745,76.252l-52.5981 -38.5548z"/>
   <path id="_226718736" class="fil0" d="M803.431 1055.56l133.498 47.3693c43.8626,15.5646 77.3316,47.5713 95.9139,86.5973 18.5847,39.026 22.3512,85.1446 6.81378,128.929l-128.141 361.125c-15.5634,43.8626 -47.5701,77.3316 -86.5961,95.9139 -39.026,18.5847 -85.1446,22.3512 -128.928,6.81378l-133.498 -47.3705c-43.8626,-15.5646 -77.3316,-47.5713 -95.9139,-86.5973 -18.5835,-39.0225 -22.3524,-85.1434 -6.81497,-128.928l128.141 -361.124c15.5634,-43.8638 47.5701,-77.3327 86.5961,-95.915 39.0248,-18.5835 85.1446,-22.35 128.929,-6.81378zm60.9957 137.641c5.99292,-16.9914 -2.92441,-35.6256 -19.9146,-41.6185 -16.9914,-5.99292 -35.6256,2.92441 -41.6185,19.9158l-29.1414 82.1221c-5.99174,16.9914 2.92441,35.6256 19.9158,41.6185 16.9914,5.99292 35.6256,-2.92441 41.6185,-19.9146l29.1402 -82.1233z"/>
  </g>
 </g>
 <rect class="fil1" width="2048" height="2048"/>
</svg>
