<?xml version="1.0" encoding="utf-8"?>
<!-- Generator: Adobe Illustrator 16.0.0, SVG Export Plug-In . SVG Version: 6.00 Build 0)  -->
<!DOCTYPE svg PUBLIC "-//W3C//DTD SVG 1.1//EN" "http://www.w3.org/Graphics/SVG/1.1/DTD/svg11.dtd">
<svg version="1.1" id="icons" xmlns="http://www.w3.org/2000/svg" xmlns:xlink="http://www.w3.org/1999/xlink" x="0px" y="0px"
	 width="64px" height="64px" viewBox="0 0 64 64" enable-background="new 0 0 64 64" xml:space="preserve">
<g>
	<g>
		<path fill="#E6E9ED" d="M61,11.5H3c-1.1,0-2,0.9-2,2v3v31c0,1.1,0.9,2,2,2h58c1.1,0,2-0.9,2-2v-1v-16v-14v-2v-1
			C63,12.4,62.1,11.5,61,11.5z"/>
		<path fill="#CCD1D9" d="M61,28.5c1.1,0,2,0.9,2,2s-0.9,2-2,2c-1.11,0-2-0.9-2-2S59.89,28.5,61,28.5z"/>
		<path fill="#CCD1D9" d="M61,49.5c1.1,0,2-0.9,2-2v3c0,1.1-0.9,2-2,2H3c-1.1,0-2-0.9-2-2v-3c0,1.1,0.9,2,2,2H61z"/>
		<polygon fill="#5D9CEC" points="59,30.5 59,46.5 5,46.5 5,14.5 59,14.5 		"/>
		<polygon fill="#5D9CEC" points="59,30.5 59,46.5 5,46.5 5,14.5 59,14.5 		"/>
		<g>
			<polygon fill="#87BCF4" points="30.982,46.5 25.01,46.5 29.014,14.5 34.986,14.5 			"/>
			<polygon fill="#87BCF4" points="34.986,46.5 33.018,46.5 37.021,14.5 38.99,14.5 			"/>
		</g>
	</g>
	<g>
		<g>
			<path fill="#5D9CEC" d="M3.029,30.5c-0.553,0-1.005-0.447-1.005-1s0.442-1,0.994-1h0.011c0.552,0,1,0.447,1,1
				S3.581,30.5,3.029,30.5z"/>
		</g>
	</g>
</g>
</svg>
